<svg width="36" height="24" viewBox="0 0 36 24" fill="none" xmlns="http://www.w3.org/2000/svg">
<path fill-rule="evenodd" clip-rule="evenodd" d="M29.3361 23.7371L30.4834 22.5898C33.0794 19.9937 33.0794 15.7395 30.4834 13.1434L29.3361 11.9961L23.4656 17.8666L29.3361 23.7371Z" fill="black"/>
<path fill-rule="evenodd" clip-rule="evenodd" d="M5.8633 12.0037L4.71601 10.8564C2.11993 8.26029 2.11993 4.00607 4.71601 1.41L5.8633 0.262695L11.7338 6.13318L5.8633 12.0037Z" fill="black"/>
<path fill-rule="evenodd" clip-rule="evenodd" d="M22.3263 19.0139C16.4977 24.8425 6.96756 24.8425 1.14732 19.0139L3.05176e-05 17.8666L5.87052 11.9961L7.01782 13.1434C9.61389 15.7395 13.8681 15.7395 16.4642 13.1434L17.6115 11.9961L23.482 17.8666L22.3347 19.0139H22.3263Z" fill="black"/>
<path fill-rule="evenodd" clip-rule="evenodd" d="M12.8807 4.98584C18.7094 -0.842773 28.2395 -0.842773 34.0597 4.98584L35.207 6.13314L29.3365 12.0036L28.1892 10.8563C25.5932 8.26025 21.3389 8.26025 18.7429 10.8563L17.5956 12.0036L11.7251 6.13314L12.8724 4.98584H12.8807Z" fill="black"/>
</svg>
