<svg width="86" height="60" viewBox="0 0 86 60" fill="none" xmlns="http://www.w3.org/2000/svg" >
<g filter="url(#filter0_d_0_13884)">
<path fill-rule="evenodd" clip-rule="evenodd" d="M68.8267 51.4745L71.3425 48.9587C77.0351 43.266 77.0351 33.9374 71.3425 28.2448L68.8267 25.729L55.954 38.6017L68.8267 51.4745Z" fill="white"/>
<path fill-rule="evenodd" clip-rule="evenodd" d="M17.3559 25.7455L14.8402 23.2297C9.14752 17.537 9.14752 8.20844 14.8402 2.51579L17.3559 0L30.2287 12.8727L17.3559 25.7455Z" fill="white"/>
<path fill-rule="evenodd" clip-rule="evenodd" d="M53.4559 41.1175C40.6749 53.8984 19.7773 53.8984 7.0148 41.1175L4.49902 38.6017L17.3718 25.729L19.8875 28.2448C25.5802 33.9374 34.9088 33.9374 40.6015 28.2448L43.1173 25.729L55.99 38.6017L53.4742 41.1175H53.4559Z" fill="white"/>
<path fill-rule="evenodd" clip-rule="evenodd" d="M32.7437 10.3569C45.5246 -2.42399 66.4222 -2.42399 79.1847 10.3569L81.7005 12.8727L68.8278 25.7454L66.312 23.2297C60.6194 17.537 51.2907 17.537 45.5981 23.2297L43.0823 25.7454L30.2095 12.8727L32.7253 10.3569H32.7437Z" fill="white"/>
</g>
<defs>
<filter id="filter0_d_0_13884" x="0.499023" y="0" width="85.2015" height="59.4744" filterUnits="userSpaceOnUse" color-interpolation-filters="sRGB">
<feFlood flood-opacity="0" result="BackgroundImageFix"/>
<feColorMatrix in="SourceAlpha" type="matrix" values="0 0 0 0 0 0 0 0 0 0 0 0 0 0 0 0 0 0 127 0" result="hardAlpha"/>
<feOffset dy="4"/>
<feGaussianBlur stdDeviation="2"/>
<feComposite in2="hardAlpha" operator="out"/>
<feColorMatrix type="matrix" values="0 0 0 0 0 0 0 0 0 0 0 0 0 0 0 0 0 0 0.25 0"/>
<feBlend mode="normal" in2="BackgroundImageFix" result="effect1_dropShadow_0_13884"/>
<feBlend mode="normal" in="SourceGraphic" in2="effect1_dropShadow_0_13884" result="shape"/>
</filter>
</defs>
</svg>
