<svg width="87" height="35" viewBox="0 0 87 35" fill="none" xmlns="http://www.w3.org/2000/svg">
<path d="M1 2.99535C4.12081 2.99535 2.84182 13.1822 6.42035 13.1822C9.99887 13.1822 10.5267 1 13.8073 1C18.7393 1 16.1113 8.24766 21.3674 8.24766C25.3226 8.24766 23.5027 14.0465 27.609 14.0465C30.6225 14.0465 29.3785 21.0467 33.5221 21.0467C37.6656 21.0467 36.9736 9.90233 41.8705 9.90233C46.7674 9.90233 49.7809 34 54.6779 34C59.5748 34 58.068 13.893 63.7183 14.0465C69.3686 14.2 67.8619 22.3349 72.7588 22.3349C77.6557 22.3349 78.6546 1 86 1" stroke="#FF3030" stroke-width="2" stroke-linecap="round"/>
</svg>
